<?xml version="1.0" encoding="utf-8"?>
<!-- Generator: Adobe Illustrator 19.0.0, SVG Export Plug-In . SVG Version: 6.00 Build 0)  -->
<svg version="1.1" id="Layer_1" xmlns="http://www.w3.org/2000/svg" xmlns:xlink="http://www.w3.org/1999/xlink" x="0px" y="0px"
	 viewBox="-191 239 117 23" style="enable-background:new -191 239 117 23;" xml:space="preserve">
<style type="text/css">
	.st0{fill:#15161E;}
	.st1{fill:#73859D;}
</style>
<g>
	<path class="st0" d="M-147.8,252c-0.5-0.6-1.1-1-1.8-1.2c0.7-0.2,1.2-0.5,1.6-1c0.4-0.5,0.6-1.1,0.6-1.9c0-1-0.4-1.9-1.1-2.4
		s-1.7-0.8-3-0.8h-5.7v12.6h5.9c1.4,0,2.4-0.3,3.1-0.9c0.7-0.6,1.1-1.4,1.1-2.5C-147.1,253.2-147.4,252.6-147.8,252z M-154.1,247.1
		h2c1.1,0,1.6,0.5,1.6,1.4s-0.5,1.4-1.6,1.4h-2V247.1z M-151.9,254.8h-2.2V252h2.2c0.6,0,1,0.1,1.3,0.4c0.3,0.3,0.4,0.6,0.4,1.1
		C-150.3,254.4-150.9,254.9-151.9,254.8z M-136.4,249.7c-0.4-0.8-1-1.4-1.8-1.8c-0.8-0.4-1.6-0.6-2.6-0.6c-1,0-1.9,0.2-2.7,0.6
		c-0.7,0.4-1.4,1-1.8,1.8c-0.5,0.8-0.7,1.7-0.7,2.7s0.3,1.9,0.7,2.7c0.4,0.8,1,1.4,1.8,1.8c0.8,0.4,1.8,0.6,2.7,0.6
		c0.9,0,1.8-0.2,2.6-0.6c0.7-0.4,1.4-1,1.8-1.8c0.5-0.8,0.7-1.7,0.7-2.7S-136.1,250.5-136.4,249.7z M-139.4,254.1
		c-0.4,0.4-0.9,0.6-1.5,0.6c-0.6,0-1.1-0.2-1.5-0.6c-0.4-0.4-0.6-1-0.6-1.8s0.2-1.4,0.6-1.8c0.4-0.4,0.9-0.6,1.5-0.6
		c0.6,0,1.1,0.2,1.5,0.6c0.4,0.4,0.6,1,0.6,1.8S-138.9,253.7-139.4,254.1z M-124.7,247.3h-3.3l-1.7,2.8l-2-2.8h-3.4l3.4,4.8
		l-3.3,5.2h3.3l1.7-2.8l2,2.8h3.4l-3.5-4.9L-124.7,247.3z M-121.9,243c-0.5,0-1,0.2-1.3,0.5c-0.3,0.3-0.5,0.6-0.5,1.1
		c0,0.4,0.2,0.8,0.5,1.1c0.3,0.3,0.8,0.5,1.3,0.5s1-0.2,1.3-0.5s0.5-0.6,0.5-1.1c0-0.4-0.2-0.8-0.5-1.1S-121.4,243-121.9,243z
		 M-123.4,247.4h3v9.9h-3V247.4z M-113.8,249.8c0.4,0,0.8,0.2,1.1,0.4c0.3,0.2,0.5,0.6,0.6,1h3.2c-0.2-1.2-0.7-2.2-1.6-2.9
		s-2-1-3.2-1.3c-1,0-1.8,0.2-2.6,0.6c-0.8,0.4-1.4,1-1.8,1.8c-0.4,0.7-0.6,1.7-0.6,2.7s0.2,1.9,0.6,2.7c0.5,0.8,1,1.4,1.8,1.8
		c0.8,0.4,1.6,0.6,2.6,0.6c1.3,0,2.3-0.4,3.2-1.1c0.8-0.7,1.4-1.7,1.6-2.9h-3.2c-0.1,0.4-0.3,0.8-0.6,1c-0.3,0.3-0.6,0.4-1.1,0.4
		s-1-0.2-1.3-0.6s-0.5-1-0.5-1.8c0-0.8,0.2-1.4,0.5-1.8C-114.8,250-114.3,249.8-113.8,249.8L-113.8,249.8z M-98.2,249.7
		c-0.4-0.8-1-1.4-1.8-1.8c-0.8-0.4-1.7-0.6-2.6-0.6c-1,0-1.9,0.2-2.7,0.6c-0.7,0.4-1.4,1-1.8,1.8c-0.5,0.8-0.7,1.7-0.7,2.7
		s0.3,1.9,0.7,2.7c0.4,0.8,1,1.4,1.8,1.8c0.8,0.4,1.7,0.6,2.7,0.6c0.9,0,1.8-0.2,2.6-0.6c0.7-0.4,1.4-1,1.8-1.8
		c0.5-0.8,0.7-1.7,0.7-2.7S-97.8,250.5-98.2,249.7z M-101.1,254.1c-0.4,0.4-0.9,0.6-1.5,0.6s-1.1-0.2-1.5-0.6
		c-0.4-0.4-0.6-1-0.6-1.8s0.2-1.4,0.6-1.8s0.8-0.6,1.5-0.6c0.6,0,1.1,0.2,1.5,0.6s0.6,1,0.6,1.8S-100.7,253.7-101.1,254.1z
		 M-89.5,247.3c-0.8,0-1.4,0.2-2,0.5s-1,0.8-1.3,1.4v-1.8h-3v9.9h3V252c0-0.7,0.1-1.3,0.5-1.7c0.4-0.4,0.9-0.6,1.5-0.6
		c0.6,0,1,0.2,1.4,0.6c0.3,0.4,0.5,0.9,0.5,1.6v5.4h3v-5.8c0-1.3-0.3-2.3-1-3.1C-87.6,247.7-88.5,247.3-89.5,247.3L-89.5,247.3z
		 M-77.7,251.9c-0.5-0.1-1.1-0.3-1.9-0.5c-0.7-0.2-1.2-0.3-1.5-0.5c-0.3-0.2-0.5-0.4-0.5-0.7c0-0.2,0.1-0.5,0.3-0.6
		c0.2-0.1,0.5-0.2,0.8-0.2c0.4,0,0.8,0.1,1.1,0.3c0.3,0.3,0.5,0.6,0.6,1h2.9c-0.2-1-0.6-1.9-1.4-2.5c-0.7-0.6-1.7-0.9-3.2-0.9
		c-1.3,0-2.2,0.2-2.9,0.8c-0.7,0.6-1,1.3-1,2.2c0,0.7,0.2,1.2,0.5,1.6c0.3,0.4,0.7,0.7,1.2,0.9s1.1,0.3,1.8,0.5
		c0.7,0.2,1.3,0.4,1.6,0.5c0.3,0.1,0.5,0.4,0.5,0.7c0,0.2-0.1,0.4-0.3,0.6c-0.2,0.1-0.5,0.2-0.8,0.2c-0.5,0-0.9-0.1-1.2-0.3
		s-0.5-0.6-0.5-1h-2.9c0.2,1.1,0.7,1.9,1.5,2.5c0.8,0.6,1.9,0.9,3.2,0.9c0.8,0,1.5-0.2,2.1-0.4c0.5-0.2,1-0.6,1.3-1
		c0.3-0.4,0.5-0.9,0.5-1.5c0-0.7-0.1-1.3-0.5-1.7C-76.8,252.4-77.2,252.1-77.7,251.9L-77.7,251.9z"/>
</g>
<path id="XMLID_1_" class="st1" d="M-188.7,293.3v22c0,3.4,1.8,6.5,4.8,8.1l22.3,12.2c2.1,1.1,4.6-0.4,4.6-2.7v-29.3l26.1-13
	c2.3-1.1,2.3-4.4,0-5.5l-22.7-11.1c-2.6-1.3-5.7-1.2-8.3,0.1l-21.7,11.1C-186.8,286.7-188.7,289.8-188.7,293.3z"/>
<path class="st0" d="M-187.4,288.5c-0.9,1.4-1.3,3.1-1.3,4.8v22c0,3.4,1.8,6.5,4.8,8.1l22.3,12.2c2.1,1.1,4.6-0.4,4.6-2.7v-29.3
	l0.5-0.3L-187.4,288.5z"/>
</svg>
